<svg width="420" height="512" viewBox="0 0 420 512" fill="none" xmlns="http://www.w3.org/2000/svg">
<rect width="420" height="512" fill="#FFFBFA"/>
<path d="M116.725 247.8C127.225 247.8 135.925 244.725 142.825 238.575C150.325 231.075 154.075 221.25 154.075 209.1V88.5H129.325V209.1C129.325 214.5 128.2 218.25 125.95 220.35C124 222.15 120.925 223.05 116.725 223.05C112.375 223.05 109.225 222.15 107.275 220.35C105.175 218.4 104.125 214.65 104.125 209.1V189.525H79.375V209.1C79.375 221.55 83.125 231.375 90.625 238.575C97.225 244.725 105.925 247.8 116.725 247.8ZM195.663 113.25V152.85H223.563V177.6H195.663V221.25H236.163V246H170.913V88.5H236.163V113.25H195.663ZM316.803 221.25H276.303V88.5H251.553V246H316.803V221.25ZM118.75 424.8C129.55 424.8 138.25 421.725 144.85 415.575C152.35 408.375 156.1 398.55 156.1 386.1V376.2C156.1 361.8 150.55 349.65 139.45 339.75C136.45 337.05 131.05 333.6 123.25 329.4C118.9 327 115.975 325.2 114.475 324C108.925 319.05 106.15 313.125 106.15 306.225V302.4C106.15 297 107.275 293.25 109.525 291.15C111.475 289.35 114.55 288.45 118.75 288.45C123.1 288.45 126.175 289.35 127.975 291.15C130.225 293.1 131.35 296.85 131.35 302.4V316.125H156.1V302.4C156.1 289.95 152.35 280.125 144.85 272.925C138.25 266.775 129.55 263.7 118.75 263.7C107.95 263.7 99.25 266.775 92.65 272.925C85.15 280.125 81.4 289.95 81.4 302.4V306.225C81.4 313.275 82.825 319.875 85.675 326.025C88.525 332.175 92.65 337.65 98.05 342.45C101.35 345.3 106.525 348.6 113.575 352.35C118.675 355.2 121.825 357.15 123.025 358.2C128.575 363.3 131.35 369.3 131.35 376.2V386.1C131.35 391.65 130.225 395.4 127.975 397.35C126.175 399.15 123.1 400.05 118.75 400.05C114.55 400.05 111.475 399.15 109.525 397.35C107.275 395.25 106.15 391.5 106.15 386.1V365.625H81.4V386.1C81.4 398.55 85.15 408.375 92.65 415.575C99.25 421.725 107.95 424.8 118.75 424.8ZM242.024 398.025H201.074L242.024 265.5H167.099V290.475H208.049L167.099 423H242.024V398.025ZM290.833 424.8C301.633 424.8 310.333 421.725 316.933 415.575C324.433 408.375 328.183 398.55 328.183 386.1V302.4C328.183 289.95 324.433 280.125 316.933 272.925C310.333 266.775 301.633 263.7 290.833 263.7C280.033 263.7 271.333 266.775 264.733 272.925C257.233 280.125 253.483 289.95 253.483 302.4V386.1C253.483 398.55 257.233 408.375 264.733 415.575C271.333 421.725 280.033 424.8 290.833 424.8ZM290.833 288.45C295.183 288.45 298.258 289.35 300.058 291.15C302.308 293.1 303.433 296.85 303.433 302.4V386.1C303.433 391.65 302.308 395.4 300.058 397.35C298.258 399.15 295.183 400.05 290.833 400.05C286.633 400.05 283.558 399.15 281.608 397.35C279.358 395.25 278.233 391.5 278.233 386.1V302.4C278.233 297 279.358 293.25 281.608 291.15C283.558 289.35 286.633 288.45 290.833 288.45ZM368.133 411.075C368.133 407.625 366.858 404.7 364.308 402.3C361.908 399.75 358.983 398.475 355.533 398.475C352.083 398.475 349.083 399.75 346.533 402.3C344.133 404.7 342.933 407.625 342.933 411.075C342.933 414.525 344.133 417.525 346.533 420.075C349.083 422.475 352.083 423.675 355.533 423.675C358.983 423.675 361.908 422.475 364.308 420.075C366.858 417.525 368.133 414.525 368.133 411.075Z" fill="#1A1C3A"/>
<rect x="5" y="5" width="410" height="502" stroke="#1A1C3A" stroke-width="10"/>
</svg>
